# xmcd
#
# Track frame offsets:
#	150
#	30042
#	59817
#	83419
#	133787
#	149903
#	168274
#	187925
#	207292
#	231262
#
# Disc length: 3329 seconds
#
# Revision: 0
# Processed by: cddbd v1.4b42PL1 Copyright (c) Steve Scherf et al.
# Submitted via: OrangeCD 4.1
#
DISCID=870cff0a
DTITLE=Michael Powers and The Powder Keg - Power Stomp
DYEAR=1900
DGENRE=
TTITLE0=Let The Good Times Roll
TTITLE1=Crossroads
TTITLE2=Smokestack Lightnin'
TTITLE3=Night In Madrid
TTITLE4=Graffiti
TTITLE5=Dust My Broom
TTITLE6=Killing Floor
TTITLE7=Baby Caught A Train
TTITLE8=Successful Son
TTITLE9=Power Stomp
EXTD=
EXTT0=
EXTT1=
EXTT2=
EXTT3=
EXTT4=
EXTT5=
EXTT6=
EXTT7=
EXTT8=
EXTT9=
PLAYORDER=
